<svg xmlns="http://www.w3.org/2000/svg" fill="none" viewBox="0 0 24 24"><path fill="url(#a)" d="M4 4a2 2 0 0 1 2-2h10a4 4 0 0 1 4 4v14a2 2 0 0 1-2 2H8a4 4 0 0 1-4-4V4z"/><path fill="url(#b)" d="M5 4a1 1 0 0 1 1-1h10a3 3 0 0 1 3 3v14a1 1 0 0 1-1 1H8a3 3 0 0 1-3-3V4z"/><path fill="url(#c)" d="M5 4a1 1 0 0 1 1-1h10a3 3 0 0 1 3 3v14a1 1 0 0 1-1 1H8a3 3 0 0 1-3-3V4z"/><path fill="url(#d)" d="M16 12.942v3.14a.918.918 0 0 1-.918.918H12v-2a3 3 0 0 0-2.067-2.85l1.78-2.233L16 12.942z"/><path fill="url(#e)" d="M16 12.748a.919.919 0 0 1-.918.919h-3.397A2.997 2.997 0 0 0 9 12H8v-.812a1.18 1.18 0 0 1 1.174-1.18l5.982-.033L16 9.5v3.248z"/><path fill="url(#f)" fill-opacity=".6" d="M16 12.748a.919.919 0 0 1-.918.919h-3.397A2.997 2.997 0 0 0 9 12H8v-.812a1.18 1.18 0 0 1 1.174-1.18l5.982-.033L16 9.5v3.248z"/><path fill="url(#g)" fill-opacity=".1" d="M16 12.748a.919.919 0 0 1-.918.919h-3.397A2.997 2.997 0 0 0 9 12H8v-.812a1.18 1.18 0 0 1 1.174-1.18l5.982-.033L16 9.5v3.248z"/><path fill="url(#h)" d="M15.082 7c.507 0 .918.411.918.918v1.497a.918.918 0 0 1-.918.918H9.476c-.815 0-1.476.66-1.476 1.476V8.574C8 7.704 8.705 7 9.574 7h5.508z"/><path fill="url(#i)" fill-opacity=".8" d="M15.082 7c.507 0 .918.411.918.918v1.497a.918.918 0 0 1-.918.918H9.476c-.815 0-1.476.66-1.476 1.476V8.574C8 7.704 8.705 7 9.574 7h5.508z"/><rect width="10" height="10" x="1" y="13" fill="url(#j)" rx="2"/><rect width="10" height="10" x="1" y="13" fill="url(#k)" fill-opacity=".65" rx="2"/><path fill="#fff" d="m9.6 15-1.292 6H6.763L6 17.4 5.2 21H3.64L2.4 15h1.274l.766 3.96L5.2 15h1.562l.797 3.96.748-3.96H9.6z"/><defs><linearGradient id="a" x1="9.167" x2="12.5" y1="2" y2="22" gradientUnits="userSpaceOnUse"><stop stop-color="#BBB"/><stop offset="1" stop-color="#888"/></linearGradient><linearGradient id="b" x1="8.889" x2="11.787" y1="3" y2="21.034" gradientUnits="userSpaceOnUse"><stop stop-color="#fff"/><stop offset="1" stop-color="#EBEBEB"/></linearGradient><radialGradient id="c" cx="0" cy="0" r="1" gradientTransform="matrix(7.38889 14.25 -11.0833 5.34375 9.472 7.688)" gradientUnits="userSpaceOnUse"><stop offset=".177" stop-color="#fff"/><stop offset="1" stop-color="#EFEFEF"/></radialGradient><radialGradient id="d" cx="0" cy="0" r="1" gradientTransform="matrix(22.1992 0 0 5.49017 15.528 17)" gradientUnits="userSpaceOnUse"><stop offset=".18" stop-color="#1657F4"/><stop offset=".575" stop-color="#0036C4"/></radialGradient><linearGradient id="e" x1="8.071" x2="14.116" y1="15.135" y2="15.135" gradientUnits="userSpaceOnUse"><stop stop-color="#66C0FF"/><stop offset=".256" stop-color="#0094F0"/></linearGradient><radialGradient id="f" cx="0" cy="0" r="1" gradientTransform="matrix(-5.32254 9.42419 -11.6993 -25.7646 15.964 10.58)" gradientUnits="userSpaceOnUse"><stop offset=".14" stop-color="#D471FF"/><stop offset=".831" stop-color="#509DF5" stop-opacity="0"/></radialGradient><radialGradient id="g" cx="0" cy="0" r="1" gradientTransform="matrix(0 8.24248 -26.7428 0 14.81 17.008)" gradientUnits="userSpaceOnUse"><stop offset=".283" stop-color="#4F006F" stop-opacity="0"/><stop offset="1" stop-color="#4F006F"/></radialGradient><linearGradient id="h" x1="8.071" x2="15.962" y1="9.917" y2="10.047" gradientUnits="userSpaceOnUse"><stop stop-color="#9DEAFF"/><stop offset=".201" stop-color="#3BD5FF"/></linearGradient><radialGradient id="i" cx="0" cy="0" r="1" gradientTransform="matrix(-7.55663 1.7597 -4.73517 -17.929 15.964 7.71)" gradientUnits="userSpaceOnUse"><stop offset=".061" stop-color="#E4A7FE"/><stop offset=".539" stop-color="#E4A7FE" stop-opacity="0"/></radialGradient><radialGradient id="j" cx="0" cy="0" r="1" gradientTransform="rotate(45 -15.192 7.707) scale(14.1421)" gradientUnits="userSpaceOnUse"><stop offset=".081" stop-color="#367AF2"/><stop offset=".872" stop-color="#001A8F"/></radialGradient><radialGradient id="k" cx="0" cy="0" r="1" gradientTransform="matrix(0 7 -7.97811 0 6 19)" gradientUnits="userSpaceOnUse"><stop offset=".587" stop-color="#2763E5" stop-opacity="0"/><stop offset=".974" stop-color="#58AAFE"/></radialGradient></defs></svg>